<?xml version="1.0" encoding="UTF-8"?>
<svg id="_图层_1" xmlns="http://www.w3.org/2000/svg" version="1.1" viewBox="0 0 1692.7 392.2">
  <!-- Generator: Adobe Illustrator 30.1.0, SVG Export Plug-In . SVG Version: 2.1.1 Build 136)  -->
  <defs>
    <style>
      .st0 {
        fill: #fff;
      }
    </style>
  </defs>
  <path class="st0" d="M767.3,303.7c-12.4,1.7-25,.5-38.1.6l-1.2-16.3c-12.9,14.9-29.8,22-49.1,19.9-24.6-2.7-44.4-19.4-53.2-42.6-7.3-19.3-7-40.9.8-60.1,9.5-23.5,30.7-40.2,55.7-42,18.4-1.3,34.3,4.8,46,18.5l1.1-15.4,37.6-.2.4,137.6h0ZM730,235.5c0-19.8-16.1-35.9-35.9-35.9s-35.9,16.1-35.9,35.9,16.1,35.9,35.9,35.9,35.9-16.1,35.9-35.9Z"/>
  <path class="st0" d="M573.2,258c11.1,5,20.6,11.9,31.3,18.3-14.5,22.3-39.3,32.8-65.1,31.9-42.3-1.4-73.1-35.5-70.7-77.3,2.1-36.3,28.7-64.6,65.2-67.9,26.3-2.4,52,8.2,66,31,9.5,15.5,11.5,33.4,9.8,50.9h-101c1.4,14.9,13.5,25.1,25.9,27.9,14.7,3.2,29-.8,38.7-14.8h0ZM572.6,219.5c-4.1-16.5-17.7-24.4-32.5-24.1-13.7.2-27.5,9.1-30.5,24.1h63Z"/>
  <path class="st0" d="M1058.8,235.6c0,40.7-33,73.8-73.8,73.8s-73.8-33-73.8-73.8,33-73.8,73.8-73.8,73.8,33,73.8,73.8ZM1021.2,235.6c0-20-16.2-36.2-36.2-36.2s-36.2,16.2-36.2,36.2,16.2,36.2,36.2,36.2,36.2-16.2,36.2-36.2Z"/>
  <path class="st0" d="M1144.4,199c-16.4-.5-30.2,10.4-30.3,26.4l-.6,78.9-38.9-.2v-137.8c0,0,38.2.4,38.2.4.4,5.7-1,10,1.4,15.8,19.5-26.5,63.3-25.1,82.9-1.2,9.2,11.2,13.5,25.6,13.4,40.4v82.6c0,0-39,.1-39,.1l-.7-79.3c-.1-14.9-10.8-25.6-26.5-26.1h0Z"/>
  <path class="st0" d="M1430.1,303.8l-44.8.5-29.9-41.8-30.5,41.8-43.3-.5,50.7-70-48.1-67.1c16.3-1.8,30.3-.1,45.4,0l26.1,38.8,27.1-39.3c14.8-.4,28.8-.6,44.5.7l-48,66.6,50.8,70.3h0Z"/>
  <path class="st0" d="M873.7,302.9c-30,11.5-78.7,7-94.4-27.6l29.9-14.4c4.5,2,5.5,6.8,9.4,9.5,16.4,11.2,44,9.8,44.4-4.6.1-4.7-3.5-8.9-8.6-10.3l-36.5-9.9c-11.8-3.2-22.6-9.8-28.1-21.2-10.2-21.1.1-45.5,21.6-55,29-12.7,77.5-8.3,89.7,25.1l-29.1,12.6c-10.5-12.8-27.7-16.8-42.6-10.4-3.5,1.5-5.5,6-5.3,8.8.3,3.7,3.4,7.7,7.6,8.9l40.5,11.1c9.8,2.7,19,7.8,24.3,16.8,13.5,23,2.3,51.1-22.8,60.7h0Z"/>
  <rect class="st0" x="1181.5" y="215.9" width="138.3" height="38.8" transform="translate(1014.5 1485.7) rotate(-90)"/>
  <circle class="st0" cx="1250.9" cy="124.6" r="23.9"/>
  <g>
    <path class="st0" d="M369.8,185.3c2.1,1.8,5,2.4,8,1.1,1.2-.5,2-1.9,1.5-3.2-3.9-10.7-15-18.5-19.4-12.5-.5.7-.5,1.7-.1,2.3.3.5,1,.6,1.8.4,2.7-.6,6,1.3,5.7,4.3-.3,3.1.3,5.8,2.6,7.7h0Z"/>
    <path class="st0" d="M434.3,204.8c10.1-11.3,16.5-25,18.7-40.1,5-32.9-11.3-63-42.1-75.8-10.8-4.3-22-6.2-33.8-6.1h-114.5v219.5h56.3v-77.2c-1.9-.7-3.1-1.3-3.1-1.3-12.2-5.6-21.6-15.3-26.7-27.4-6.6-15.5-4.5-32.9,5.8-46.1,10.3-12.8,24.3-16.9,40.4-14.7,6,.8,12.3-6.1,24.4-4.8.8,0,1.6.7,1.7,1.2.3,1.6-4.4,2.5-4.4,7.1s.9,4.1,2.6,5.4c6.2,4.3,11.5,9.2,17.1,14.2,2.7,2.4,11.9,9.3,14.3,3.7,1.4-3.3,2.3-6.7,3.2-10.1.5-1.7-.5-2.7-1.9-3.6-9.5-5.6-13.1-17.4-9.4-27.7.4-1,1.3-1.5,2.1-1.5,3.2-.1,1.5,5.8,9.4,8.2,7.5,2.3,7.7,8.5,11.4,6,8.5-5.8,11.5-1.1,19.4-8.5.8-.8,2.2-.8,3-.2.5.4,1,1.3.9,2.4-.2,6.3-2.7,12.2-7,16.8-8.1,8.7-14.9,4.5-15.3,10.6-1.3,17.9-7.1,35.7-19.8,48.7-.4.4-.6,1-.6,1.4,0,.4.6.8,1.1,1l10.7,3.6c1.5.5,2.6,1.9,2.4,3.3-.2,1.3-1.2,2.4-2.6,2.9-7.8,2.6-16.3,2.1-24.2-.3-10.6,8.9-23.5,13.5-37.7,12.9l20.5,28.3,33.5,45.7h66.9c0,0-56.7-76.6-56.7-76.6,13.2-3.9,24.8-10.9,34.1-20.9h0Z"/>
    <circle class="st0" cx="362.1" cy="177.2" r="1.6"/>
    <path class="st0" d="M300.3,167.9c-3.5.4-5.6,3-5.3,6.7,2.4,26.4,26.7,47.9,53.9,42.7,5.8-1.1,11.1-3.4,15.4-7.7-9.3-8-13.8-16.1-21.4-24.1-10.9-11.5-26.4-19.5-42.6-17.6Z"/>
  </g>
</svg>